<svg width="54" height="53" viewBox="0 0 54 53" fill="none" xmlns="http://www.w3.org/2000/svg">
<path fill-rule="evenodd" clip-rule="evenodd" d="M0.404297 26.4297C0.404297 40.664 11.9435 52.2031 26.1777 52.2031C40.412 52.2031 51.9512 40.664 51.9512 26.4297C51.9512 17.0149 46.9032 8.77924 39.3661 4.28155V4.2766H39.3579C35.5014 1.97722 30.9938 0.65625 26.1777 0.65625C11.9435 0.65625 0.404297 12.1954 0.404297 26.4297ZM37.2974 5.42687C34.3861 3.88232 31.1153 2.92536 27.6431 2.7141V25.1141V38.6347L37.2974 32.6541V5.42687ZM15.9201 4.99184C18.8548 3.58508 22.1232 2.76319 25.5743 2.67716V24.0339L15.9201 29.9444V4.99184ZM13.8513 6.11311C6.99632 10.2811 2.4177 17.8207 2.4177 26.4297C2.4177 30.1343 3.26554 33.6409 4.77778 36.766L13.8513 31.211V6.11311ZM5.72656 38.532L25.5743 26.3807V39.9162L14.2068 46.9582C10.7142 44.9171 7.78932 42.0102 5.72656 38.532ZM39.3661 31.3725L49.8864 24.8555C49.6453 21.1692 48.5635 17.7123 46.831 14.6748L39.3661 19.0402V31.3725ZM39.3661 16.7186L45.7649 12.9765C44.0526 10.4883 41.8784 8.34249 39.3661 6.66295V16.7186ZM16.2824 48.0375L49.9256 27.1963C49.5209 39.9638 39.0435 50.1897 26.1777 50.1897C22.6464 50.1897 19.295 49.4193 16.2824 48.0375Z" fill="#253056"/>
</svg>
